<?xml version="1.0" encoding="UTF-8" standalone="no"?>
<svg
   enable-background="new 0 0 24 24"
   height="24px"
   viewBox="0 0 24 24"
   width="24px"
   fill="#000000"
   version="1.1"
   id="svg1847"
   sodipodi:docname="pest_control_black_24dp.svg"
   inkscape:version="1.1.1 (c3084ef, 2021-09-22)"
   inkscape:export-filename="/Users/Kirthmas/Desktop/favicon.ico"
   inkscape:export-xdpi="256"
   inkscape:export-ydpi="256"
   xmlns:inkscape="http://www.inkscape.org/namespaces/inkscape"
   xmlns:sodipodi="http://sodipodi.sourceforge.net/DTD/sodipodi-0.dtd"
   xmlns="http://www.w3.org/2000/svg"
   xmlns:svg="http://www.w3.org/2000/svg">
  <defs
     id="defs1851" />
  <sodipodi:namedview
     id="namedview1849"
     pagecolor="#505050"
     bordercolor="#eeeeee"
     borderopacity="1"
     inkscape:pageshadow="0"
     inkscape:pageopacity="0"
     inkscape:pagecheckerboard="0"
     showgrid="false"
     inkscape:zoom="9.4375"
     inkscape:cx="-20.397351"
     inkscape:cy="7.2582781"
     inkscape:window-width="1280"
     inkscape:window-height="675"
     inkscape:window-x="0"
     inkscape:window-y="25"
     inkscape:window-maximized="0"
     inkscape:current-layer="svg1847" />
  <circle
     style="fill:#ffffff;fill-opacity:1;stroke:none;stroke-width:3.77953;stroke-linecap:round;stroke-linejoin:round;paint-order:stroke markers fill;stop-color:#000000"
     id="path2094"
     cx="12"
     cy="12"
     r="12" />
  <g
     id="g1839">
    <rect
       fill="none"
       height="24"
       width="24"
       id="rect1837" />
  </g>
  <g
     id="g1845"
     style="fill:#6d28d9;fill-opacity:1"
     transform="rotate(45,12,11.88)">
    <g
       id="g1843"
       style="fill:#6d28d9;fill-opacity:1">
      <path
         d="m 21,15 v -2 h -3.07 c -0.05,-0.39 -0.12,-0.77 -0.22,-1.14 l 2.58,-1.49 -1,-1.73 L 16.92,10 C 16.64,9.52 16.3,9.09 15.93,8.71 15.97,8.48 16,8.25 16,8 16,7.2 15.76,6.45 15.35,5.82 L 17,4.17 15.59,2.76 13.87,4.48 c -1.68,-0.89 -3.1,-0.33 -3.73,0 L 8.41,2.76 7,4.17 8.65,5.82 C 8.24,6.45 8,7.2 8,8 8,8.25 8.03,8.48 8.07,8.72 7.7,9.1 7.36,9.53 7.08,10 l -2.37,-1.37 -1,1.73 2.58,1.49 C 6.19,12.22 6.12,12.6 6.07,12.99 H 3 v 2 h 3.07 c 0.05,0.39 0.12,0.77 0.22,1.14 l -2.58,1.49 1,1.73 L 7.08,18 c 1.08,1.81 2.88,3 4.92,3 2.04,0 3.84,-1.19 4.92,-3 l 2.37,1.37 1,-1.73 -2.58,-1.49 c 0.1,-0.37 0.17,-0.75 0.22,-1.14 H 21 Z m -8,2 h -2 v -6 h 2 z"
         id="path1841"
         style="fill:#6d28d9;fill-opacity:1" />
    </g>
  </g>
</svg>
